<svg width="24" height="24" viewBox="0 0 24 24" fill="none" xmlns="http://www.w3.org/2000/svg">
<path fill-rule="evenodd" clip-rule="evenodd" d="M15.586 11.9999L8.29296 4.70692C8.1108 4.51832 8.01001 4.26571 8.01228 4.00352C8.01456 3.74132 8.11973 3.49051 8.30514 3.3051C8.49055 3.11969 8.74136 3.01452 9.00356 3.01224C9.26575 3.00997 9.51836 3.11076 9.70696 3.29292L17.566 11.1509C17.791 11.376 17.9174 11.6812 17.9174 11.9994C17.9174 12.3177 17.791 12.6229 17.566 12.8479L9.70696 20.7079C9.51932 20.8954 9.26487 21.0007 8.9996 21.0006C8.73433 21.0005 8.47997 20.8951 8.29246 20.7074C8.10495 20.5198 7.99966 20.2653 7.99976 20.0001C7.99985 19.7348 8.10532 19.4804 8.29296 19.2929L15.586 11.9999Z" fill="#1D1D1D"/>
</svg>
