<svg width="24" height="24" viewBox="0 0 24 24" fill="none" xmlns="http://www.w3.org/2000/svg">
<g id="ui-chevron-left">
<path id="Vector" fill-rule="evenodd" clip-rule="evenodd" d="M8.41396 12L15.707 19.293C15.8891 19.4816 15.9899 19.7342 15.9876 19.9964C15.9854 20.2586 15.8802 20.5094 15.6948 20.6948C15.5094 20.8802 15.2586 20.9854 14.9964 20.9877C14.7342 20.9899 14.4816 20.8891 14.293 20.707L6.43396 12.848C6.20894 12.6229 6.08252 12.3177 6.08252 11.9995C6.08252 11.6812 6.20894 11.376 6.43396 11.151L14.294 3.29299C14.3857 3.19531 14.4961 3.11706 14.6187 3.0629C14.7412 3.00873 14.8734 2.97974 15.0074 2.97766C15.1414 2.97558 15.2744 3.00045 15.3986 3.05078C15.5228 3.10112 15.6356 3.1759 15.7303 3.27068C15.825 3.36546 15.8997 3.47832 15.95 3.60253C16.0002 3.72675 16.025 3.8598 16.0228 3.99378C16.0206 4.12775 15.9915 4.25993 15.9373 4.38245C15.883 4.50497 15.8047 4.61533 15.707 4.70699L8.41396 12Z" fill="#1D1D1D"/>
</g>
</svg>
