<svg width="28" height="35" viewBox="0 0 28 35" fill="none" xmlns="http://www.w3.org/2000/svg">
<g clip-path="url(#clip0_203_985)">
<path d="M27.6952 9.2899C26.3008 5.16382 23.8626 0.140625 23.8626 0.140625L20.553 2.11406L24.473 10.635C24.473 10.635 24.9949 12.7877 23.6016 13.5056C22.2084 14.2224 20.9887 13.3264 20.9887 13.3264L16.6341 3.99679L13.8476 5.61183L14.8925 8.48238C14.8925 8.48238 14.0223 7.04767 11.9312 6.86846C9.84133 6.68926 7.92501 8.12286 7.92501 8.12286L3.04853 10.9957L8.88373 24.1803L12.3669 22.3861L10.1023 17.364L11.322 16.6461L15.6765 20.7721L19.3344 18.7987L14.8052 14.1339C14.8052 14.1339 16.1996 12.1616 15.6765 10.7257L18.4631 15.5697C18.4631 15.5697 21.2508 19.3374 25.2559 16.2865C25.2559 16.2865 29.0885 13.4171 27.6952 9.29103V9.2899ZM11.4093 13.5056L9.14469 14.7611L7.92501 12.0709L8.96997 11.3529C8.96997 11.3529 10.538 10.0974 11.4093 11.5321C12.2796 12.9669 11.4093 13.5056 11.4093 13.5056ZM15.2509 25.6733L15.9375 23.7312H1.30693L1.95429 25.5657C1.31323 25.7749 0.769185 26.2084 0.422129 26.7865C0.0689862 27.3725 -0.0688422 28.0632 0.0323689 28.7398C0.133169 29.4174 0.465809 30.0357 0.970929 30.4837C1.47717 30.9305 2.12117 31.1758 2.78757 31.1758H2.92645L3.53125 31.9744L3.53909 34.8606H13.7053V31.9744L14.1556 31.2576C14.2261 31.2576 14.2956 31.2677 14.3661 31.2677C15.0306 31.2651 15.6714 31.0211 16.1693 30.5811C16.6733 30.1398 17.0071 29.5283 17.1135 28.8563C17.2196 28.1858 17.0906 27.4993 16.7484 26.9131C16.4119 26.3347 15.8795 25.8957 15.2476 25.6755L15.2509 25.6733Z" fill="white" fill-opacity="0.65"/>
</g>
<defs>
<clipPath id="clip0_203_985">
<rect width="28" height="35" fill="white"/>
</clipPath>
</defs>
</svg>
