<svg width="25" height="24" viewBox="0 0 25 24" fill="none" xmlns="http://www.w3.org/2000/svg">
<g id="icon-star">
<path id="Vector" d="M21.1351 10.3352C21.23 10.219 21.2943 10.0808 21.322 9.93332C21.3496 9.78584 21.3399 9.63377 21.2935 9.49105C21.2472 9.34832 21.1658 9.21951 21.0568 9.11641C20.9477 9.01331 20.8146 8.93923 20.6695 8.90094C19.3555 8.5444 18.0177 8.28261 16.6663 8.11758C16.4978 8.09698 16.3372 8.03383 16.1999 7.93407C16.0625 7.83431 15.9528 7.70122 15.881 7.54734C15.3056 6.31287 14.6428 5.12104 13.8977 3.98094C13.8166 3.8547 13.7051 3.75086 13.5734 3.67894C13.4417 3.60702 13.2941 3.56934 13.1441 3.56934C12.994 3.56934 12.8464 3.60702 12.7147 3.67894C12.583 3.75086 12.4715 3.8547 12.3905 3.98094C11.6453 5.12072 10.9825 6.31222 10.4071 7.54638C10.3356 7.70024 10.226 7.83334 10.0888 7.93312C9.95158 8.03289 9.79119 8.09604 9.62277 8.11662C8.25573 8.28366 6.91845 8.54862 5.61765 8.90094C5.47258 8.93908 5.3394 9.01304 5.23036 9.11605C5.12131 9.21905 5.03987 9.34779 4.99353 9.49046C4.94718 9.63312 4.93741 9.78514 4.96511 9.93257C4.99281 10.08 5.05709 10.2181 5.15205 10.3342C6.00599 11.3954 6.93476 12.3941 7.93125 13.3227C8.18373 13.5579 8.29797 13.9073 8.23077 14.2462C7.97012 15.5828 7.80618 16.9363 7.74021 18.2965C7.73178 18.4463 7.76108 18.5958 7.82544 18.7314C7.8898 18.8669 7.98714 18.9842 8.10857 19.0724C8.22999 19.1605 8.3716 19.2168 8.52042 19.2361C8.66924 19.2553 8.82051 19.2369 8.96037 19.1825C10.2189 18.7025 11.4564 18.1313 12.6602 17.4622C12.8087 17.3798 12.9757 17.3366 13.1455 17.3366C13.3153 17.3366 13.4823 17.3798 13.6308 17.4622C14.8215 18.1225 16.058 18.6967 17.3306 19.1806C17.4703 19.2348 17.6214 19.253 17.77 19.2337C17.9186 19.2144 18.06 19.1582 18.1813 19.0701C18.3025 18.9821 18.3998 18.8651 18.4642 18.7297C18.5286 18.5944 18.558 18.4451 18.5498 18.2955C18.4831 16.9351 18.3188 15.5812 18.0583 14.2443C18.0259 14.0779 18.0363 13.906 18.0887 13.7447C18.1411 13.5835 18.2337 13.4382 18.3578 13.3227C19.3544 12.3942 20.2832 11.3955 21.137 10.3342L21.1351 10.3352Z" fill="#E0E0E0"/>
</g>
</svg>
