<svg width="24" height="24" viewBox="0 0 24 24" fill="none" xmlns="http://www.w3.org/2000/svg">
<g id="icon-tg-2021" clip-path="url(#clip0_203_969)">
<path id="Vector" fill-rule="evenodd" clip-rule="evenodd" d="M6.9 0C3 0 0 3 0 6.9V17C0 21 3 24 6.9 24H17C20.8 24 23.9 21 23.9 17.1V7C24 3 21 0 17.1 0H7H6.9ZM16.9 7L13.6 8.4L5.9 11.7C4.6 12.3 5.4 12.7 5.4 12.7L7.5 13.5C8.5 13.8 9 13.5 9 13.5L13.7 10.2C15.3 9 14.9 10 14.5 10.4L11.1 13.8C10.5 14.3 10.8 14.8 11.1 14.9C11.7 15.5 13.3 16.6 14 17.1L14.3 17.4C14.5 17.5 15.4 18.1 16 18C16.5 17.8 16.6 17 16.6 17L17.4 11.6L17.6 10.2L18 7.6C18 6.5 17 7 17 7H16.9Z" fill="#F5F5F5"/>
</g>
<defs>
<clipPath id="clip0_203_969">
<rect width="24" height="24" fill="white"/>
</clipPath>
</defs>
</svg>
