<svg width="24" height="24" viewBox="0 0 24 24" fill="none" xmlns="http://www.w3.org/2000/svg">
<g id="icon-vk-2021" clip-path="url(#clip0_203_961)">
<path id="Vector" fill-rule="evenodd" clip-rule="evenodd" d="M6.9 0C3 0 0 3 0 6.9V17C0 21 3 24 6.9 24H17C20.8 24 23.9 21 23.9 17.1V7C24 3 21 0 17.1 0H7H6.9ZM12.6 16.3C8 16.3 5.3 13 5.1 7.7H7.5C7.5 11.7 9.3 13.3 10.7 13.7V7.7H12.9V11.1C14.2 11 15.7 9.4 16.1 7.7H18.3C18 9.8 16.4 11.4 15.3 12C16.4 12.5 18.2 13.8 18.9 16.3H16.4C16.1727 15.5131 15.7202 14.8099 15.0984 14.2769C14.4765 13.7439 13.7124 13.4043 12.9 13.3V16.3H12.6Z" fill="#F5F5F5"/>
</g>
<defs>
<clipPath id="clip0_203_961">
<rect width="24" height="24" fill="white"/>
</clipPath>
</defs>
</svg>
