<svg width="24" height="24" viewBox="0 0 24 24" fill="none" xmlns="http://www.w3.org/2000/svg">
<g id="icon-youtube-2021" clip-path="url(#clip0_203_964)">
<g id="Group">
<path id="Vector" d="M14.7 12.0004L10.3 14.6004V9.40039L14.7 12.0004Z" fill="#F5F5F5"/>
<path id="Vector_2" fill-rule="evenodd" clip-rule="evenodd" d="M0 6.9C0 3 3 0 6.9 0H17C21 0 24 3 24 6.9V17C24 20.8 21 23.9 17.1 23.9H7C3 24 0 21 0 17.1V7V6.9ZM20.2 16C20.0967 16.3562 19.905 16.6805 19.6427 16.9427C19.3805 17.205 19.0562 17.3967 18.7 17.5C17.4 17.9 12 17.9 12 17.9C12 17.9 6.6 17.9 5.3 17.5C4.93933 17.4056 4.61029 17.2169 4.34668 16.9533C4.08306 16.6897 3.89437 16.3607 3.8 16C3.4 14.7 3.4 11.9 3.4 11.9C3.4 11.9 3.4 9.1 3.8 7.8C3.89437 7.43933 4.08306 7.11029 4.34668 6.84668C4.61029 6.58306 4.93933 6.39437 5.3 6.3C6.6 6 12 6 12 6C12 6 17.4 6 18.7 6.4C19.0607 6.49437 19.3897 6.68306 19.6533 6.94668C19.9169 7.21029 20.1056 7.53933 20.2 7.9C20.6 9.2 20.6 12 20.6 12C20.6 12 20.6 14.8 20.2 16.1V16Z" fill="#F5F5F5"/>
</g>
</g>
<defs>
<clipPath id="clip0_203_964">
<rect width="24" height="24" fill="white"/>
</clipPath>
</defs>
</svg>
